#
# Exported by OpenBRF -- marco tarini
#
s _mesh_passage
newmtl ui_gadgets_add
Ka 0.8 0.8 0.8
Kd 0.2 0.2 0.2
usemtl ui_gadgets_add
v 0.445236 0.786959 0.057383  0.882353 0.243137 0.192157  1
v -0.445236 0.786959 0.057383  0.882353 0.243137 0.192157  1
v -0.445235 -0.786959 0.057383  0.882353 0.243137 0.192157  1
v 0.445236 -0.786959 0.057383  0.882353 0.243137 0.192157  1
v 0.445236 0.786959 -0.040032  0.882353 0.243137 0.192157  1
v 0.445236 -0.786959 -0.040032  0.882353 0.243137 0.192157  1
v -0.445235 -0.786959 -0.040032  0.882353 0.243137 0.192157  1
v -0.445236 0.786959 -0.040032  0.882353 0.243137 0.192157  1
vn 0 0 1
vt 1 0
vn 0 0 1
vt 1 1
vn 0 0 1
vt 0 1
vn 0 0 1
vt 0 0
vn 0 0 -1
vt 1 0
vn 0 0 -1
vt 0 0
vn 0 0 -1
vt 0 1
vn 0 0 -1
vt 1 1
f 1/1/1 2/2/2 3/3/3
f 3/3/3 4/4/4 1/1/1
f 5/5/5 6/6/6 7/7/7
f 7/7/7 8/8/8 5/5/5
