#
# Exported by OpenBRF -- marco tarini
#
s entry_arrow
newmtl ui_gadgets_add
Ka 0.8 0.8 0.8
Kd 0.2 0.2 0.2
usemtl ui_gadgets_add
v 0.08 -0.048 0.02  1 0.819608 0.12549  1
v 0.08 0.048 0.02  1 0.819608 0.12549  1
v 0.08 0.048 0.46  1 0.819608 0.12549  1
v 0.08 -0.048 0.46  1 0.819608 0.12549  1
v -0.08 0.048 0.02  1 0.819608 0.12549  1
v -0.08 -0.048 0.02  1 0.819608 0.12549  1
v -0.08 -0.048 0.46  1 0.819608 0.12549  1
v -0.08 0.048 0.46  1 0.819608 0.12549  1
v 0.16 -0.048 0.48  1 0.819608 0.12549  1
v -0.16 -0.048 0.48  1 0.819608 0.12549  1
v -0.16 0.048 0.48  1 0.819608 0.12549  1
v 0.16 0.048 0.48  1 0.819608 0.12549  1
v 0 0 0.64  1 0.819608 0.12549  1
v 0 0.048 0.02  1 0.819608 0.12549  1
v 0 -0.048 0.02  1 0.819608 0.12549  1
v -0.1 -0.048 -0.08  1 0.819608 0.12549  1
v -0.1 0.048 -0.08  1 0.819608 0.12549  1
v 0.1 -0.048 -0.08  1 0.819608 0.12549  1
v 0.1 0.048 -0.08  1 0.819608 0.12549  1
v -0.19 0.048 0.43  1 0.819608 0.12549  1
v -0.19 -0.048 0.43  1 0.819608 0.12549  1
v 0.19 -0.048 0.43  1 0.819608 0.12549  1
v 0.19 0.048 0.43  1 0.819608 0.12549  1
vn 0.701947 -0.70883 0.069506
vt 0.078846 0.385711
vn 0.701947 0.708829 0.069506
vt 0.078846 0.385711
vn 0.227692 0.926979 -0.298105
vt 0.078846 0.390292
vn 0.176281 -0.9569 -0.230796
vt 0.078846 0.390292
vn -0.701947 0.708829 0.069506
vt 0.080282 0.385711
vn -0.701947 -0.70883 0.069506
vt 0.080282 0.385711
vn -0.227692 -0.926979 -0.298105
vt 0.080282 0.390292
vn -0.176281 0.9569 -0.230796
vt 0.080282 0.390292
vn 0.426246 -0.805805 0.411086
vt 0.078128 0.3905
vn -0.426246 -0.805806 0.411086
vt 0.081 0.3905
vn -0.426247 0.805805 0.411086
vt 0.081 0.3905
vn 0.426246 0.805805 0.411086
vt 0.078128 0.3905
vn 0 0 1
vt 0.079564 0.392166
vn 0 0.490533 0.871423
vt 0.079564 0.392166
vn 0 -0.490533 0.871423
vt 0.079564 0.392166
vn 0 0.942809 -0.333333
vt 0.079564 0.385711
vn 0 -0.942809 -0.333333
vt 0.079564 0.385711
vn -0.236608 -0.865193 -0.442105
vt 0.080461 0.38467
vn -0.693375 -0.707107 0.138675
vt 0.080461 0.38467
vn 0.5 -0.707107 -0.5
vt 0.080461 0.38467
vn -0.236608 0.865193 -0.442106
vt 0.080461 0.38467
vn -0.693375 0.707107 0.138675
vt 0.080461 0.38467
vn 0.5 0.707107 -0.5
vt 0.080461 0.38467
vn 0.236608 -0.865193 -0.442106
vt 0.078666 0.38467
vn 0.693375 -0.707107 0.138675
vt 0.078666 0.38467
vn -0.5 -0.707107 -0.5
vt 0.078666 0.38467
vn 0.236608 0.865193 -0.442106
vt 0.078666 0.38467
vn 0.693375 0.707107 0.138675
vt 0.078666 0.38467
vn -0.5 0.707107 -0.5
vt 0.078666 0.38467
vn -0.606339 0.707107 0.363803
vt 0.081269 0.389979
vn -0.476489 0.801663 -0.360963
vt 0.081269 0.389979
vn 0.186052 0.707107 -0.682191
vt 0.081269 0.389979
vn -0.606339 -0.707107 0.363803
vt 0.081269 0.389979
vn -0.476489 -0.801663 -0.360963
vt 0.081269 0.389979
vn 0.186052 -0.707107 -0.682191
vt 0.081269 0.389979
vn 0.606339 -0.707107 0.363803
vt 0.077859 0.389979
vn 0.476489 -0.801663 -0.360963
vt 0.077859 0.389979
vn -0.186052 -0.707107 -0.682191
vt 0.077859 0.389979
vn 0.606339 0.707107 0.363803
vt 0.077859 0.389979
vn 0.476489 0.801663 -0.360964
vt 0.077859 0.389979
vn -0.186052 0.707107 -0.682191
vt 0.077859 0.389979
f 1/1/1 2/2/2 3/3/3
f 3/3/3 4/4/4 1/1/1
f 5/5/5 6/6/6 7/7/7
f 7/7/7 8/8/8 5/5/5
f 7/7/7 4/4/4 9/9/9
f 9/9/9 10/10/10 7/7/7
f 3/3/3 8/8/8 11/11/11
f 11/11/11 12/12/12 3/3/3
f 9/9/9 12/12/12 13/13/13
f 11/11/11 10/10/10 13/13/13
f 12/12/12 11/11/11 13/14/14
f 10/10/10 9/9/9 13/15/15
f 14/16/16 5/5/5 8/8/8
f 14/16/16 8/8/8 3/3/3
f 3/3/3 2/2/2 14/16/16
f 15/17/17 1/1/1 4/4/4
f 7/7/7 6/6/6 15/17/17
f 15/17/17 4/4/4 7/7/7
f 15/17/17 6/6/6 16/18/18
f 5/5/5 14/16/16 17/21/21
f 16/19/19 6/6/6 5/5/5
f 5/5/5 17/22/22 16/19/19
f 1/1/1 15/17/17 18/24/24
f 14/16/16 2/2/2 19/27/27
f 1/1/1 18/25/25 19/28/28
f 19/28/28 2/2/2 1/1/1
f 14/16/16 19/29/29 18/26/26
f 18/26/26 15/17/17 14/16/16
f 14/16/16 15/17/17 16/20/20
f 16/20/20 17/23/23 14/16/16
f 10/10/10 11/11/11 20/30/30
f 20/30/30 21/33/33 10/10/10
f 11/11/11 8/8/8 20/31/31
f 7/7/7 10/10/10 21/34/34
f 8/8/8 7/7/7 21/35/35
f 21/35/35 20/32/32 8/8/8
f 12/12/12 9/9/9 22/36/36
f 22/36/36 23/39/39 12/12/12
f 3/3/3 12/12/12 23/40/40
f 9/9/9 4/4/4 22/37/37
f 4/4/4 3/3/3 23/41/41
f 23/41/41 22/38/38 4/4/4
